<svg viewBox="0 0 12 12" width="60px" height="60px" xmlns="http://www.w3.org/2000/svg"><path fill-rule="evenodd" d="M 3,0 8,0 8,2 9,2 9,3 11,3 11,9 10,9 10,11 7,11 7,8 4,8 4,11 1,11 1,9 0,9 0,3 2,3 2,2 3,2z" fill="#BD6BBD"/><path fill-rule="evenodd" d="M 4,1 5,1 5,2 4,2z" fill="#ffffff"/><path fill-rule="evenodd" d="M 6,1 7,1 7,2 6,2z" fill="#ffffff"/><path fill-rule="evenodd" d="M 3,3 4,3 4,4 3,4z" fill="#ffffff"/><path fill-rule="evenodd" d="M 7,3 8,3 8,4 7,4z" fill="#ffffff"/><path fill-rule="evenodd" d="M 1,4 3,4 3,5 1,5z" fill="#ffffff"/><path fill-rule="evenodd" d="M 5,4 6,4 6,5 5,5z" fill="#ffffff"/><path fill-rule="evenodd" d="M 8,4 10,4 10,5 8,5z" fill="#ffffff"/><path fill-rule="evenodd" d="M 4,5 5,5 5,7 3,7 3,6 4,6z" fill="#ffffff"/><path fill-rule="evenodd" d="M 6,5 7,5 7,6 8,6 8,7 6,7z" fill="#ffffff"/><path fill-rule="evenodd" d="M 1,6 2,6 2,7 3,7 3,8 1,8z" fill="#ffffff"/><path fill-rule="evenodd" d="M 9,6 10,6 10,8 8,8 8,7 9,7z" fill="#ffffff"/><path fill-rule="evenodd" d="M 2,9 3,9 3,10 2,10z" fill="#ffffff"/><path fill-rule="evenodd" d="M 8,9 9,9 9,10 8,10z" fill="#ffffff"/></svg>